<?xml version="1.0" encoding="UTF-8"?>
<svg id="_レイヤー_1" data-name="レイヤー 1" xmlns="http://www.w3.org/2000/svg" viewBox="0 0 380.69 380.69">
  <defs>
    <style>
      .cls-1 {
        fill: #ffc514;
      }
    </style>
  </defs>
  <path class="cls-1" d="M315.08,33.24H65.61c-17.51,0-31.7,14.19-31.7,31.7v249.47c0,17.51,14.19,31.7,31.7,31.7h159.03v.67l.63-.67h14.7c10.06,0,19.63-4.32,26.29-11.86l71.73-81.21c5.66-6.41,8.79-14.67,8.79-23.22V64.94c0-17.51-14.19-31.7-31.7-31.7ZM65.61,316.87c-1.36,0-2.47-1.11-2.47-2.47v-166.05c.58.07,1.16.12,1.75.12h83.16v111.79c0,8.07,6.54,14.62,14.62,14.62s14.62-6.54,14.62-14.62v-126.41c0-8.07-6.54-14.62-14.62-14.62h-97.78c-.59,0-1.18.05-1.75.12v-54.42c0-1.36,1.11-2.47,2.47-2.47h249.47c1.36,0,2.47,1.11,2.47,2.47v155.94h-62.72c-16.64,0-30.19,13.54-30.19,30.19v65.81H65.61Z"/>
</svg>